<?xml version="1.0" encoding="UTF-8" standalone="no"?><svg xmlns="http://www.w3.org/2000/svg" xmlns:xlink="http://www.w3.org/1999/xlink" contentStyleType="text/css" height="1110px" preserveAspectRatio="none" style="width:2096px;height:1110px;background:#FFFFFF;" version="1.1" viewBox="0 0 2096 1110" width="2096px" zoomAndPan="magnify"><defs/><g><rect fill="#FFFFFF" height="985.5078" style="stroke:#181818;stroke-width:1.0;" width="10" x="214" y="69.9609"/><rect fill="#FFFFFF" height="924.8047" style="stroke:#181818;stroke-width:1.0;" width="10" x="490" y="100.3125"/><rect fill="#FFFFFF" height="864.1016" style="stroke:#181818;stroke-width:1.0;" width="10" x="860" y="130.6641"/><rect fill="#FFFFFF" height="30.3516" style="stroke:#181818;stroke-width:1.0;" width="10" x="1295.5" y="550.5859"/><rect fill="#FFFFFF" height="30.3516" style="stroke:#181818;stroke-width:1.0;" width="10" x="1295.5" y="751.9531"/><rect fill="#FFFFFF" height="30.3516" style="stroke:#181818;stroke-width:1.0;" width="10" x="1295.5" y="843.0078"/><rect fill="#FFFFFF" height="30.3516" style="stroke:#181818;stroke-width:1.0;" width="10" x="1295.5" y="934.0625"/><rect fill="#FFFFFF" height="153.7578" style="stroke:#181818;stroke-width:1.0;" width="10" x="1535.5" y="464.5313"/><rect fill="#FFFFFF" height="182.1094" style="stroke:#181818;stroke-width:1.0;" width="10" x="1535.5" y="721.6016"/><rect fill="#FFFFFF" height="30.3516" style="stroke:#181818;stroke-width:1.0;" width="10" x="1667.5" y="221.7188"/><rect fill="#FFFFFF" height="30.3516" style="stroke:#181818;stroke-width:1.0;" width="10" x="1667.5" y="373.4766"/><rect fill="#FFFFFF" height="121.4063" style="stroke:#181818;stroke-width:1.0;" width="10" x="1829.5" y="161.0156"/><rect fill="#FFFFFF" height="121.4063" style="stroke:#181818;stroke-width:1.0;" width="10" x="1829.5" y="312.7734"/><rect fill="none" height="79.0547" style="stroke:#000000;stroke-width:1.5;" width="426.5" x="1209" y="509.8828"/><line style="stroke:#181818;stroke-width:0.5;stroke-dasharray:5.0,5.0;" x1="219" x2="219" y1="37.6094" y2="1073.4688"/><line style="stroke:#181818;stroke-width:0.5;stroke-dasharray:5.0,5.0;" x1="495" x2="495" y1="37.6094" y2="1073.4688"/><line style="stroke:#181818;stroke-width:0.5;stroke-dasharray:5.0,5.0;" x1="864.5" x2="864.5" y1="37.6094" y2="1073.4688"/><line style="stroke:#181818;stroke-width:0.5;stroke-dasharray:5.0,5.0;" x1="1141" x2="1141" y1="657.5938" y2="1073.4688"/><line style="stroke:#181818;stroke-width:0.5;stroke-dasharray:5.0,5.0;" x1="1300" x2="1300" y1="37.6094" y2="1073.4688"/><line style="stroke:#181818;stroke-width:0.5;stroke-dasharray:5.0,5.0;" x1="1540.5" x2="1540.5" y1="37.6094" y2="1073.4688"/><line style="stroke:#181818;stroke-width:0.5;stroke-dasharray:5.0,5.0;" x1="1672.5" x2="1672.5" y1="37.6094" y2="1073.4688"/><line style="stroke:#181818;stroke-width:0.5;stroke-dasharray:5.0,5.0;" x1="1834" x2="1834" y1="37.6094" y2="1073.4688"/><rect fill="#E3E3E3" height="31.6094" rx="2.5" ry="2.5" style="stroke:#181818;stroke-width:0.5;" width="174" x="132" y="5"/><text fill="#000000" font-family="sans-serif" font-size="14" lengthAdjust="spacing" textLength="160" x="139" y="26.5332">BuildingConnectionRoute</text><rect fill="#E3E3E3" height="31.6094" rx="2.5" ry="2.5" style="stroke:#181818;stroke-width:0.5;" width="174" x="132" y="1072.4688"/><text fill="#000000" font-family="sans-serif" font-size="14" lengthAdjust="spacing" textLength="160" x="139" y="1094.002">BuildingConnectionRoute</text><rect fill="#E3E3E3" height="31.6094" rx="2.5" ry="2.5" style="stroke:#181818;stroke-width:0.5;" width="198" x="396" y="5"/><text fill="#000000" font-family="sans-serif" font-size="14" lengthAdjust="spacing" textLength="184" x="403" y="26.5332">BuildingConnectionController</text><rect fill="#E3E3E3" height="31.6094" rx="2.5" ry="2.5" style="stroke:#181818;stroke-width:0.5;" width="198" x="396" y="1072.4688"/><text fill="#000000" font-family="sans-serif" font-size="14" lengthAdjust="spacing" textLength="184" x="403" y="1094.002">BuildingConnectionController</text><rect fill="#E3E3E3" height="31.6094" rx="2.5" ry="2.5" style="stroke:#181818;stroke-width:0.5;" width="183" x="773.5" y="5"/><text fill="#000000" font-family="sans-serif" font-size="14" lengthAdjust="spacing" textLength="169" x="780.5" y="26.5332">BuildingConnectionService</text><rect fill="#E3E3E3" height="31.6094" rx="2.5" ry="2.5" style="stroke:#181818;stroke-width:0.5;" width="183" x="773.5" y="1072.4688"/><text fill="#000000" font-family="sans-serif" font-size="14" lengthAdjust="spacing" textLength="169" x="780.5" y="1094.002">BuildingConnectionService</text><rect fill="#E3E3E3" height="31.6094" rx="2.5" ry="2.5" style="stroke:#181818;stroke-width:0.5;" width="136" x="1073" y="1072.4688"/><text fill="#000000" font-family="sans-serif" font-size="14" lengthAdjust="spacing" textLength="122" x="1080" y="1094.002">BuildingConnection</text><rect fill="#E3E3E3" height="31.6094" rx="2.5" ry="2.5" style="stroke:#181818;stroke-width:0.5;" width="163" x="1219" y="5"/><text fill="#000000" font-family="sans-serif" font-size="14" lengthAdjust="spacing" textLength="149" x="1226" y="26.5332">BuildingConnectionMap</text><rect fill="#E3E3E3" height="31.6094" rx="2.5" ry="2.5" style="stroke:#181818;stroke-width:0.5;" width="163" x="1219" y="1072.4688"/><text fill="#000000" font-family="sans-serif" font-size="14" lengthAdjust="spacing" textLength="149" x="1226" y="1094.002">BuildingConnectionMap</text><rect fill="#E3E3E3" height="31.6094" rx="2.5" ry="2.5" style="stroke:#181818;stroke-width:0.5;" width="170" x="1455.5" y="5"/><text fill="#000000" font-family="sans-serif" font-size="14" lengthAdjust="spacing" textLength="156" x="1462.5" y="26.5332">BuildingConnectionRepo</text><rect fill="#E3E3E3" height="31.6094" rx="2.5" ry="2.5" style="stroke:#181818;stroke-width:0.5;" width="170" x="1455.5" y="1072.4688"/><text fill="#000000" font-family="sans-serif" font-size="14" lengthAdjust="spacing" textLength="156" x="1462.5" y="1094.002">BuildingConnectionRepo</text><rect fill="#E3E3E3" height="31.6094" rx="2.5" ry="2.5" style="stroke:#181818;stroke-width:0.5;" width="74" x="1635.5" y="5"/><text fill="#000000" font-family="sans-serif" font-size="14" lengthAdjust="spacing" textLength="60" x="1642.5" y="26.5332">FloorMap</text><rect fill="#E3E3E3" height="31.6094" rx="2.5" ry="2.5" style="stroke:#181818;stroke-width:0.5;" width="74" x="1635.5" y="1072.4688"/><text fill="#000000" font-family="sans-serif" font-size="14" lengthAdjust="spacing" textLength="60" x="1642.5" y="1094.002">FloorMap</text><rect fill="#E3E3E3" height="31.6094" rx="2.5" ry="2.5" style="stroke:#181818;stroke-width:0.5;" width="81" x="1794" y="5"/><text fill="#000000" font-family="sans-serif" font-size="14" lengthAdjust="spacing" textLength="67" x="1801" y="26.5332">FloorRepo</text><rect fill="#E3E3E3" height="31.6094" rx="2.5" ry="2.5" style="stroke:#181818;stroke-width:0.5;" width="81" x="1794" y="1072.4688"/><text fill="#000000" font-family="sans-serif" font-size="14" lengthAdjust="spacing" textLength="67" x="1801" y="1094.002">FloorRepo</text><rect fill="#FFFFFF" height="985.5078" style="stroke:#181818;stroke-width:1.0;" width="10" x="214" y="69.9609"/><rect fill="#FFFFFF" height="924.8047" style="stroke:#181818;stroke-width:1.0;" width="10" x="490" y="100.3125"/><rect fill="#FFFFFF" height="864.1016" style="stroke:#181818;stroke-width:1.0;" width="10" x="860" y="130.6641"/><rect fill="#FFFFFF" height="30.3516" style="stroke:#181818;stroke-width:1.0;" width="10" x="1295.5" y="550.5859"/><rect fill="#FFFFFF" height="30.3516" style="stroke:#181818;stroke-width:1.0;" width="10" x="1295.5" y="751.9531"/><rect fill="#FFFFFF" height="30.3516" style="stroke:#181818;stroke-width:1.0;" width="10" x="1295.5" y="843.0078"/><rect fill="#FFFFFF" height="30.3516" style="stroke:#181818;stroke-width:1.0;" width="10" x="1295.5" y="934.0625"/><rect fill="#FFFFFF" height="153.7578" style="stroke:#181818;stroke-width:1.0;" width="10" x="1535.5" y="464.5313"/><rect fill="#FFFFFF" height="182.1094" style="stroke:#181818;stroke-width:1.0;" width="10" x="1535.5" y="721.6016"/><rect fill="#FFFFFF" height="30.3516" style="stroke:#181818;stroke-width:1.0;" width="10" x="1667.5" y="221.7188"/><rect fill="#FFFFFF" height="30.3516" style="stroke:#181818;stroke-width:1.0;" width="10" x="1667.5" y="373.4766"/><rect fill="#FFFFFF" height="121.4063" style="stroke:#181818;stroke-width:1.0;" width="10" x="1829.5" y="161.0156"/><rect fill="#FFFFFF" height="121.4063" style="stroke:#181818;stroke-width:1.0;" width="10" x="1829.5" y="312.7734"/><polygon fill="#181818" points="202,65.9609,212,69.9609,202,73.9609,206,69.9609" style="stroke:#181818;stroke-width:1.0;"/><line style="stroke:#181818;stroke-width:1.0;" x1="0" x2="208" y1="69.9609" y2="69.9609"/><text fill="#000000" font-family="sans-serif" font-size="13" lengthAdjust="spacing" textLength="195" x="7" y="65.1045">Post /buildingConnections / (json)</text><polygon fill="#181818" points="478,96.3125,488,100.3125,478,104.3125,482,100.3125" style="stroke:#181818;stroke-width:1.0;"/><line style="stroke:#181818;stroke-width:1.0;" x1="224" x2="484" y1="100.3125" y2="100.3125"/><text fill="#000000" font-family="sans-serif" font-size="13" lengthAdjust="spacing" textLength="179" x="231" y="95.4561">createBuildingConnection(json)</text><polygon fill="#181818" points="848,126.6641,858,130.6641,848,134.6641,852,130.6641" style="stroke:#181818;stroke-width:1.0;"/><line style="stroke:#181818;stroke-width:1.0;" x1="500" x2="854" y1="130.6641" y2="130.6641"/><text fill="#000000" font-family="sans-serif" font-size="13" lengthAdjust="spacing" textLength="341" x="507" y="125.8076">createBuildingConnection(json as IBuildingConnectionDTO)</text><polygon fill="#181818" points="1817.5,157.0156,1827.5,161.0156,1817.5,165.0156,1821.5,161.0156" style="stroke:#181818;stroke-width:1.0;"/><line style="stroke:#181818;stroke-width:1.0;" x1="870" x2="1823.5" y1="161.0156" y2="161.0156"/><text fill="#000000" font-family="sans-serif" font-size="13" lengthAdjust="spacing" textLength="278" x="877" y="156.1592">findByDomainId(buildingConnectionDTO.floor1Id)</text><polygon fill="#181818" points="2083.5,187.3672,2093.5,191.3672,2083.5,195.3672,2087.5,191.3672" style="stroke:#181818;stroke-width:1.0;"/><line style="stroke:#181818;stroke-width:1.0;" x1="1839.5" x2="2089.5" y1="191.3672" y2="191.3672"/><text fill="#000000" font-family="sans-serif" font-size="13" lengthAdjust="spacing" textLength="232" x="1846.5" y="186.5107">findOne(buildingConnectionDTO.floor1Id)</text><polygon fill="#181818" points="1688.5,217.7188,1678.5,221.7188,1688.5,225.7188,1684.5,221.7188" style="stroke:#181818;stroke-width:1.0;"/><line style="stroke:#181818;stroke-width:1.0;" x1="1682.5" x2="1828.5" y1="221.7188" y2="221.7188"/><text fill="#000000" font-family="sans-serif" font-size="13" lengthAdjust="spacing" textLength="133" x="1694.5" y="216.8623">Map2Model(floor1Data)</text><polygon fill="#181818" points="1817.5,248.0703,1827.5,252.0703,1817.5,256.0703,1821.5,252.0703" style="stroke:#181818;stroke-width:1.0;"/><line style="stroke:#181818;stroke-width:1.0;stroke-dasharray:2.0,2.0;" x1="1672.5" x2="1823.5" y1="252.0703" y2="252.0703"/><text fill="#000000" font-family="sans-serif" font-size="13" lengthAdjust="spacing" textLength="31" x="1679.5" y="247.2139">floor1</text><polygon fill="#181818" points="881,278.4219,871,282.4219,881,286.4219,877,282.4219" style="stroke:#181818;stroke-width:1.0;"/><line style="stroke:#181818;stroke-width:1.0;stroke-dasharray:2.0,2.0;" x1="875" x2="1833.5" y1="282.4219" y2="282.4219"/><text fill="#000000" font-family="sans-serif" font-size="13" lengthAdjust="spacing" textLength="31" x="887" y="277.5654">floor1</text><polygon fill="#181818" points="1817.5,308.7734,1827.5,312.7734,1817.5,316.7734,1821.5,312.7734" style="stroke:#181818;stroke-width:1.0;"/><line style="stroke:#181818;stroke-width:1.0;" x1="870" x2="1823.5" y1="312.7734" y2="312.7734"/><text fill="#000000" font-family="sans-serif" font-size="13" lengthAdjust="spacing" textLength="278" x="877" y="307.917">findByDomainId(buildingConnectionDTO.floor2Id)</text><polygon fill="#181818" points="2083.5,339.125,2093.5,343.125,2083.5,347.125,2087.5,343.125" style="stroke:#181818;stroke-width:1.0;"/><line style="stroke:#181818;stroke-width:1.0;" x1="1839.5" x2="2089.5" y1="343.125" y2="343.125"/><text fill="#000000" font-family="sans-serif" font-size="13" lengthAdjust="spacing" textLength="232" x="1846.5" y="338.2686">findOne(buildingConnectionDTO.floor2Id)</text><polygon fill="#181818" points="1688.5,369.4766,1678.5,373.4766,1688.5,377.4766,1684.5,373.4766" style="stroke:#181818;stroke-width:1.0;"/><line style="stroke:#181818;stroke-width:1.0;" x1="1682.5" x2="1828.5" y1="373.4766" y2="373.4766"/><text fill="#000000" font-family="sans-serif" font-size="13" lengthAdjust="spacing" textLength="133" x="1694.5" y="368.6201">Map2Model(floor2Data)</text><polygon fill="#181818" points="1817.5,399.8281,1827.5,403.8281,1817.5,407.8281,1821.5,403.8281" style="stroke:#181818;stroke-width:1.0;"/><line style="stroke:#181818;stroke-width:1.0;stroke-dasharray:2.0,2.0;" x1="1672.5" x2="1823.5" y1="403.8281" y2="403.8281"/><text fill="#000000" font-family="sans-serif" font-size="13" lengthAdjust="spacing" textLength="31" x="1679.5" y="398.9717">floor2</text><polygon fill="#181818" points="881,430.1797,871,434.1797,881,438.1797,877,434.1797" style="stroke:#181818;stroke-width:1.0;"/><line style="stroke:#181818;stroke-width:1.0;stroke-dasharray:2.0,2.0;" x1="875" x2="1833.5" y1="434.1797" y2="434.1797"/><text fill="#000000" font-family="sans-serif" font-size="13" lengthAdjust="spacing" textLength="31" x="887" y="429.3232">floor2</text><polygon fill="#181818" points="1523.5,460.5313,1533.5,464.5313,1523.5,468.5313,1527.5,464.5313" style="stroke:#181818;stroke-width:1.0;"/><line style="stroke:#181818;stroke-width:1.0;" x1="870" x2="1529.5" y1="464.5313" y2="464.5313"/><text fill="#000000" font-family="sans-serif" font-size="13" lengthAdjust="spacing" textLength="43" x="877" y="459.6748">findAll()</text><polygon fill="#181818" points="2083.5,490.8828,2093.5,494.8828,2083.5,498.8828,2087.5,494.8828" style="stroke:#181818;stroke-width:1.0;"/><line style="stroke:#181818;stroke-width:1.0;" x1="1545.5" x2="2089.5" y1="494.8828" y2="494.8828"/><text fill="#000000" font-family="sans-serif" font-size="13" lengthAdjust="spacing" textLength="28" x="1552.5" y="490.0264">find()</text><path d="M1209,509.8828 L1282,509.8828 L1282,518.2344 L1272,528.2344 L1209,528.2344 L1209,509.8828 " fill="#EEEEEE" style="stroke:#000000;stroke-width:1.5;"/><rect fill="none" height="79.0547" style="stroke:#000000;stroke-width:1.5;" width="426.5" x="1209" y="509.8828"/><text fill="#000000" font-family="sans-serif" font-size="13" font-weight="bold" lengthAdjust="spacing" textLength="28" x="1224" y="524.3779">loop</text><text fill="#000000" font-family="sans-serif" font-size="11" font-weight="bold" lengthAdjust="spacing" textLength="183" x="1297" y="523.3018">[foreach buildingConnectionData]</text><polygon fill="#181818" points="1316.5,546.5859,1306.5,550.5859,1316.5,554.5859,1312.5,550.5859" style="stroke:#181818;stroke-width:1.0;"/><line style="stroke:#181818;stroke-width:1.0;" x1="1310.5" x2="1534.5" y1="550.5859" y2="550.5859"/><text fill="#000000" font-family="sans-serif" font-size="13" lengthAdjust="spacing" textLength="211" x="1322.5" y="545.7295">Map2Model(buildingConnectionData)</text><polygon fill="#181818" points="1523.5,576.9375,1533.5,580.9375,1523.5,584.9375,1527.5,580.9375" style="stroke:#181818;stroke-width:1.0;"/><line style="stroke:#181818;stroke-width:1.0;stroke-dasharray:2.0,2.0;" x1="1300.5" x2="1529.5" y1="580.9375" y2="580.9375"/><text fill="#000000" font-family="sans-serif" font-size="13" lengthAdjust="spacing" textLength="109" x="1307.5" y="576.0811">buildingConnection</text><polygon fill="#181818" points="881,614.2891,871,618.2891,881,622.2891,877,618.2891" style="stroke:#181818;stroke-width:1.0;"/><line style="stroke:#181818;stroke-width:1.0;stroke-dasharray:2.0,2.0;" x1="875" x2="1539.5" y1="618.2891" y2="618.2891"/><text fill="#000000" font-family="sans-serif" font-size="13" lengthAdjust="spacing" textLength="116" x="887" y="613.4326">buildingConnections</text><polygon fill="#181818" points="1061,644.6406,1071,648.6406,1061,652.6406,1065,648.6406" style="stroke:#181818;stroke-width:1.0;"/><line style="stroke:#181818;stroke-width:1.0;" x1="870" x2="1067" y1="648.6406" y2="648.6406"/><text fill="#000000" font-family="sans-serif" font-size="13" lengthAdjust="spacing" textLength="179" x="877" y="643.7842">create(buildingConnectionDTO)</text><rect fill="#E3E3E3" height="31.6094" rx="2.5" ry="2.5" style="stroke:#181818;stroke-width:0.5;" width="136" x="1073" y="626.2891"/><text fill="#000000" font-family="sans-serif" font-size="14" lengthAdjust="spacing" textLength="122" x="1080" y="647.8223">BuildingConnection</text><polygon fill="#181818" points="881,687.25,871,691.25,881,695.25,877,691.25" style="stroke:#181818;stroke-width:1.0;"/><line style="stroke:#181818;stroke-width:1.0;stroke-dasharray:2.0,2.0;" x1="875" x2="1140" y1="691.25" y2="691.25"/><text fill="#000000" font-family="sans-serif" font-size="13" lengthAdjust="spacing" textLength="109" x="887" y="686.3936">buildingConnection</text><polygon fill="#181818" points="1523.5,717.6016,1533.5,721.6016,1523.5,725.6016,1527.5,721.6016" style="stroke:#181818;stroke-width:1.0;"/><line style="stroke:#181818;stroke-width:1.0;" x1="870" x2="1529.5" y1="721.6016" y2="721.6016"/><text fill="#000000" font-family="sans-serif" font-size="13" lengthAdjust="spacing" textLength="143" x="877" y="716.7451">save(buildingConnection)</text><polygon fill="#181818" points="1316.5,747.9531,1306.5,751.9531,1316.5,755.9531,1312.5,751.9531" style="stroke:#181818;stroke-width:1.0;"/><line style="stroke:#181818;stroke-width:1.0;" x1="1310.5" x2="1534.5" y1="751.9531" y2="751.9531"/><text fill="#000000" font-family="sans-serif" font-size="13" lengthAdjust="spacing" textLength="176" x="1322.5" y="747.0967">Map2Data(buildingConnection)</text><polygon fill="#181818" points="1523.5,778.3047,1533.5,782.3047,1523.5,786.3047,1527.5,782.3047" style="stroke:#181818;stroke-width:1.0;"/><line style="stroke:#181818;stroke-width:1.0;stroke-dasharray:2.0,2.0;" x1="1300.5" x2="1529.5" y1="782.3047" y2="782.3047"/><text fill="#000000" font-family="sans-serif" font-size="13" lengthAdjust="spacing" textLength="136" x="1307.5" y="777.4482">buildingConnectionData</text><polygon fill="#181818" points="2083.5,808.6563,2093.5,812.6563,2083.5,816.6563,2087.5,812.6563" style="stroke:#181818;stroke-width:1.0;"/><line style="stroke:#181818;stroke-width:1.0;" x1="1545.5" x2="2089.5" y1="812.6563" y2="812.6563"/><text fill="#000000" font-family="sans-serif" font-size="13" lengthAdjust="spacing" textLength="170" x="1552.5" y="807.7998">save(buildingConnectionData)</text><polygon fill="#181818" points="1316.5,839.0078,1306.5,843.0078,1316.5,847.0078,1312.5,843.0078" style="stroke:#181818;stroke-width:1.0;"/><line style="stroke:#181818;stroke-width:1.0;" x1="1310.5" x2="1534.5" y1="843.0078" y2="843.0078"/><text fill="#000000" font-family="sans-serif" font-size="13" lengthAdjust="spacing" textLength="211" x="1322.5" y="838.1514">Map2Model(buildingConnectionData)</text><polygon fill="#181818" points="1523.5,869.3594,1533.5,873.3594,1523.5,877.3594,1527.5,873.3594" style="stroke:#181818;stroke-width:1.0;"/><line style="stroke:#181818;stroke-width:1.0;stroke-dasharray:2.0,2.0;" x1="1300.5" x2="1529.5" y1="873.3594" y2="873.3594"/><text fill="#000000" font-family="sans-serif" font-size="13" lengthAdjust="spacing" textLength="116" x="1307.5" y="868.5029">buildingConnection1</text><polygon fill="#181818" points="881,899.7109,871,903.7109,881,907.7109,877,903.7109" style="stroke:#181818;stroke-width:1.0;"/><line style="stroke:#181818;stroke-width:1.0;stroke-dasharray:2.0,2.0;" x1="875" x2="1539.5" y1="903.7109" y2="903.7109"/><text fill="#000000" font-family="sans-serif" font-size="13" lengthAdjust="spacing" textLength="116" x="887" y="898.8545">buildingConnection1</text><polygon fill="#181818" points="1283.5,930.0625,1293.5,934.0625,1283.5,938.0625,1287.5,934.0625" style="stroke:#181818;stroke-width:1.0;"/><line style="stroke:#181818;stroke-width:1.0;" x1="870" x2="1289.5" y1="934.0625" y2="934.0625"/><text fill="#000000" font-family="sans-serif" font-size="13" lengthAdjust="spacing" textLength="182" x="877" y="929.2061">Map2DTO(buildingConnection1)</text><polygon fill="#181818" points="881,960.4141,871,964.4141,881,968.4141,877,964.4141" style="stroke:#181818;stroke-width:1.0;"/><line style="stroke:#181818;stroke-width:1.0;stroke-dasharray:2.0,2.0;" x1="875" x2="1299.5" y1="964.4141" y2="964.4141"/><text fill="#000000" font-family="sans-serif" font-size="13" lengthAdjust="spacing" textLength="142" x="887" y="959.5576">buildingConnection1DTO</text><polygon fill="#181818" points="511,990.7656,501,994.7656,511,998.7656,507,994.7656" style="stroke:#181818;stroke-width:1.0;"/><line style="stroke:#181818;stroke-width:1.0;stroke-dasharray:2.0,2.0;" x1="505" x2="864" y1="994.7656" y2="994.7656"/><text fill="#000000" font-family="sans-serif" font-size="13" lengthAdjust="spacing" textLength="142" x="517" y="989.9092">buildingConnection1DTO</text><polygon fill="#181818" points="235,1021.1172,225,1025.1172,235,1029.1172,231,1025.1172" style="stroke:#181818;stroke-width:1.0;"/><line style="stroke:#181818;stroke-width:1.0;stroke-dasharray:2.0,2.0;" x1="229" x2="494" y1="1025.1172" y2="1025.1172"/><text fill="#000000" font-family="sans-serif" font-size="13" lengthAdjust="spacing" textLength="242" x="241" y="1020.2607">response(buildingConnectionDTO as json)</text><polygon fill="#181818" points="11,1051.4688,1,1055.4688,11,1059.4688,7,1055.4688" style="stroke:#181818;stroke-width:1.0;"/><line style="stroke:#181818;stroke-width:1.0;stroke-dasharray:2.0,2.0;" x1="5" x2="218" y1="1055.4688" y2="1055.4688"/><text fill="#000000" font-family="sans-serif" font-size="13" lengthAdjust="spacing" textLength="53" x="17" y="1050.6123">response</text><!--MD5=[257578e3c94ee0e9b17d9b6021262c19]
@startuml
!pragma svg
'http://plantuml.com/skinparam.html
skinparam monochrome true
skinparam packageStyle rect
skinparam shadowing false


participant BuildingConnectionRoute  as route
participant BuildingConnectionController as controller
participant BuildingConnectionService as service
participant BuildingConnection as domain
participant BuildingConnectionMap as mapper
participant BuildingConnectionRepo as repo
participant FloorMap as mapperFloor
participant FloorRepo as repoFloor



-> route: Post /buildingConnections / (json)
activate route
  route->controller: createBuildingConnection(json)
  activate controller
    controller ->service:createBuildingConnection(json as IBuildingConnectionDTO)
    activate service
    service->repoFloor:findByDomainId(buildingConnectionDTO.floor1Id)
    activate repoFloor
    repoFloor -> :findOne(buildingConnectionDTO.floor1Id)
    repoFloor -> mapperFloor:Map2Model(floor1Data)
    activate mapperFloor
    mapperFloor - -> repoFloor:floor1
    deactivate
    repoFloor  - -> service:floor1
    deactivate
    service->repoFloor:findByDomainId(buildingConnectionDTO.floor2Id)
    activate repoFloor
    repoFloor -> :findOne(buildingConnectionDTO.floor2Id)
    repoFloor -> mapperFloor:Map2Model(floor2Data)
    activate mapperFloor
    mapperFloor - -> repoFloor:floor2
    deactivate
    repoFloor  - -> service:floor2
    deactivate
    service -> repo:findAll()
    activate repo
    repo ->:find()
    loop foreach buildingConnectionData
    repo -> mapper:Map2Model(buildingConnectionData)
    activate mapper
    mapper - -> repo:buildingConnection
    deactivate
    end
    repo - -> service : buildingConnections
    deactivate
    service -> domain**:create(buildingConnectionDTO)
    domain - -> service:buildingConnection
    service -> repo:save(buildingConnection)
    activate  repo
    repo -> mapper:Map2Data(buildingConnection)
    activate mapper
    mapper - -> repo:buildingConnectionData
    deactivate
    repo -> : save(buildingConnectionData)
    repo -> mapper:Map2Model(buildingConnectionData)     
    activate mapper
    mapper - -> repo:buildingConnection1
    deactivate
    repo - -> service: buildingConnection1
    deactivate
    service -> mapper:Map2DTO(buildingConnection1)
    activate mapper
    mapper- -> service:buildingConnection1DTO
    deactivate
    service - -> controller:buildingConnection1DTO
    deactivate
    controller - -> route:response(buildingConnectionDTO as json)
    deactivate
    <- - route:response
    deactivate





@enduml

@startuml
!pragma svg
skinparam monochrome true
skinparam packageStyle rect
skinparam shadowing false


participant BuildingConnectionRoute  as route
participant BuildingConnectionController as controller
participant BuildingConnectionService as service
participant BuildingConnection as domain
participant BuildingConnectionMap as mapper
participant BuildingConnectionRepo as repo
participant FloorMap as mapperFloor
participant FloorRepo as repoFloor



-> route: Post /buildingConnections / (json)
activate route
  route->controller: createBuildingConnection(json)
  activate controller
    controller ->service:createBuildingConnection(json as IBuildingConnectionDTO)
    activate service
    service->repoFloor:findByDomainId(buildingConnectionDTO.floor1Id)
    activate repoFloor
    repoFloor -> :findOne(buildingConnectionDTO.floor1Id)
    repoFloor -> mapperFloor:Map2Model(floor1Data)
    activate mapperFloor
    mapperFloor - -> repoFloor:floor1
    deactivate
    repoFloor  - -> service:floor1
    deactivate
    service->repoFloor:findByDomainId(buildingConnectionDTO.floor2Id)
    activate repoFloor
    repoFloor -> :findOne(buildingConnectionDTO.floor2Id)
    repoFloor -> mapperFloor:Map2Model(floor2Data)
    activate mapperFloor
    mapperFloor - -> repoFloor:floor2
    deactivate
    repoFloor  - -> service:floor2
    deactivate
    service -> repo:findAll()
    activate repo
    repo ->:find()
    loop foreach buildingConnectionData
    repo -> mapper:Map2Model(buildingConnectionData)
    activate mapper
    mapper - -> repo:buildingConnection
    deactivate
    end
    repo - -> service : buildingConnections
    deactivate
    service -> domain**:create(buildingConnectionDTO)
    domain - -> service:buildingConnection
    service -> repo:save(buildingConnection)
    activate  repo
    repo -> mapper:Map2Data(buildingConnection)
    activate mapper
    mapper - -> repo:buildingConnectionData
    deactivate
    repo -> : save(buildingConnectionData)
    repo -> mapper:Map2Model(buildingConnectionData)     
    activate mapper
    mapper - -> repo:buildingConnection1
    deactivate
    repo - -> service: buildingConnection1
    deactivate
    service -> mapper:Map2DTO(buildingConnection1)
    activate mapper
    mapper- -> service:buildingConnection1DTO
    deactivate
    service - -> controller:buildingConnection1DTO
    deactivate
    controller - -> route:response(buildingConnectionDTO as json)
    deactivate
    <- - route:response
    deactivate





@enduml

PlantUML version 1.2022.7(Mon Aug 22 18:01:30 WEST 2022)
(GPL source distribution)
Java Runtime: Java(TM) SE Runtime Environment
JVM: Java HotSpot(TM) 64-Bit Server VM
Default Encoding: UTF-8
Language: pt
Country: PT
--></g></svg>