<?xml version="1.0" encoding="us-ascii" standalone="no"?><svg xmlns="http://www.w3.org/2000/svg" xmlns:xlink="http://www.w3.org/1999/xlink" contentStyleType="text/css" height="674px" preserveAspectRatio="none" style="width:1226px;height:674px;background:#FFFFFF;" version="1.1" viewBox="0 0 1226 674" width="1226px" zoomAndPan="magnify"><defs/><g><rect fill="#FFFFFF" height="546.9473" style="stroke:#181818;stroke-width:1.0;" width="10" x="202" y="71.9121"/><rect fill="#FFFFFF" height="484.3652" style="stroke:#181818;stroke-width:1.0;" width="10" x="376" y="103.2031"/><rect fill="#FFFFFF" height="421.7832" style="stroke:#181818;stroke-width:1.0;" width="10" x="600" y="134.4941"/><rect fill="#FFFFFF" height="31.291" style="stroke:#181818;stroke-width:1.0;" width="10" x="739" y="197.0762"/><rect fill="#FFFFFF" height="31.291" style="stroke:#181818;stroke-width:1.0;" width="10" x="739" y="486.6953"/><rect fill="#FFFFFF" height="93.873" style="stroke:#181818;stroke-width:1.0;" width="10" x="914" y="165.7852"/><rect fill="#FFFFFF" height="31.291" style="stroke:#181818;stroke-width:1.0;" width="10" x="1010" y="348.5313"/><rect fill="#FFFFFF" height="93.873" style="stroke:#181818;stroke-width:1.0;" width="10" x="1165" y="317.2402"/><rect fill="none" height="251.3281" style="stroke:#000000;stroke-width:1.5;" width="681" x="539.5" y="274.6582"/><line style="stroke:#181818;stroke-width:0.5;stroke-dasharray:5.0,5.0;" x1="207" x2="207" y1="38.6211" y2="636.8594"/><line style="stroke:#181818;stroke-width:0.5;stroke-dasharray:5.0,5.0;" x1="381" x2="381" y1="38.6211" y2="636.8594"/><line style="stroke:#181818;stroke-width:0.5;stroke-dasharray:5.0,5.0;" x1="604.5" x2="604.5" y1="38.6211" y2="636.8594"/><line style="stroke:#181818;stroke-width:0.5;stroke-dasharray:5.0,5.0;" x1="743.5" x2="743.5" y1="38.6211" y2="636.8594"/><line style="stroke:#181818;stroke-width:0.5;stroke-dasharray:5.0,5.0;" x1="919" x2="919" y1="38.6211" y2="636.8594"/><line style="stroke:#181818;stroke-width:0.5;stroke-dasharray:5.0,5.0;" x1="1015" x2="1015" y1="38.6211" y2="636.8594"/><line style="stroke:#181818;stroke-width:0.5;stroke-dasharray:5.0,5.0;" x1="1169.5" x2="1169.5" y1="38.6211" y2="636.8594"/><rect fill="#E3E3E3" height="32.6211" rx="2.5" ry="2.5" style="stroke:#181818;stroke-width:0.5;" width="102" x="156" y="5"/><text fill="#000000" font-family="sans-serif" font-size="14" lengthAdjust="spacing" textLength="88" x="163" y="27.1074">BuildingRoute</text><rect fill="#E3E3E3" height="32.6211" rx="2.5" ry="2.5" style="stroke:#181818;stroke-width:0.5;" width="102" x="156" y="635.8594"/><text fill="#000000" font-family="sans-serif" font-size="14" lengthAdjust="spacing" textLength="88" x="163" y="657.9668">BuildingRoute</text><rect fill="#E3E3E3" height="32.6211" rx="2.5" ry="2.5" style="stroke:#181818;stroke-width:0.5;" width="126" x="318" y="5"/><text fill="#000000" font-family="sans-serif" font-size="14" lengthAdjust="spacing" textLength="112" x="325" y="27.1074">BuildingController</text><rect fill="#E3E3E3" height="32.6211" rx="2.5" ry="2.5" style="stroke:#181818;stroke-width:0.5;" width="126" x="318" y="635.8594"/><text fill="#000000" font-family="sans-serif" font-size="14" lengthAdjust="spacing" textLength="112" x="325" y="657.9668">BuildingController</text><rect fill="#E3E3E3" height="32.6211" rx="2.5" ry="2.5" style="stroke:#181818;stroke-width:0.5;" width="111" x="549.5" y="5"/><text fill="#000000" font-family="sans-serif" font-size="14" lengthAdjust="spacing" textLength="97" x="556.5" y="27.1074">BuildingService</text><rect fill="#E3E3E3" height="32.6211" rx="2.5" ry="2.5" style="stroke:#181818;stroke-width:0.5;" width="111" x="549.5" y="635.8594"/><text fill="#000000" font-family="sans-serif" font-size="14" lengthAdjust="spacing" textLength="97" x="556.5" y="657.9668">BuildingService</text><rect fill="#E3E3E3" height="32.6211" rx="2.5" ry="2.5" style="stroke:#181818;stroke-width:0.5;" width="91" x="698.5" y="5"/><text fill="#000000" font-family="sans-serif" font-size="14" lengthAdjust="spacing" textLength="77" x="705.5" y="27.1074">BuildingMap</text><rect fill="#E3E3E3" height="32.6211" rx="2.5" ry="2.5" style="stroke:#181818;stroke-width:0.5;" width="91" x="698.5" y="635.8594"/><text fill="#000000" font-family="sans-serif" font-size="14" lengthAdjust="spacing" textLength="77" x="705.5" y="657.9668">BuildingMap</text><rect fill="#E3E3E3" height="32.6211" rx="2.5" ry="2.5" style="stroke:#181818;stroke-width:0.5;" width="98" x="870" y="5"/><text fill="#000000" font-family="sans-serif" font-size="14" lengthAdjust="spacing" textLength="84" x="877" y="27.1074">BuildingRepo</text><rect fill="#E3E3E3" height="32.6211" rx="2.5" ry="2.5" style="stroke:#181818;stroke-width:0.5;" width="98" x="870" y="635.8594"/><text fill="#000000" font-family="sans-serif" font-size="14" lengthAdjust="spacing" textLength="84" x="877" y="657.9668">BuildingRepo</text><rect fill="#E3E3E3" height="32.6211" rx="2.5" ry="2.5" style="stroke:#181818;stroke-width:0.5;" width="74" x="978" y="5"/><text fill="#000000" font-family="sans-serif" font-size="14" lengthAdjust="spacing" textLength="60" x="985" y="27.1074">FloorMap</text><rect fill="#E3E3E3" height="32.6211" rx="2.5" ry="2.5" style="stroke:#181818;stroke-width:0.5;" width="74" x="978" y="635.8594"/><text fill="#000000" font-family="sans-serif" font-size="14" lengthAdjust="spacing" textLength="60" x="985" y="657.9668">FloorMap</text><rect fill="#E3E3E3" height="32.6211" rx="2.5" ry="2.5" style="stroke:#181818;stroke-width:0.5;" width="81" x="1129.5" y="5"/><text fill="#000000" font-family="sans-serif" font-size="14" lengthAdjust="spacing" textLength="67" x="1136.5" y="27.1074">FloorRepo</text><rect fill="#E3E3E3" height="32.6211" rx="2.5" ry="2.5" style="stroke:#181818;stroke-width:0.5;" width="81" x="1129.5" y="635.8594"/><text fill="#000000" font-family="sans-serif" font-size="14" lengthAdjust="spacing" textLength="67" x="1136.5" y="657.9668">FloorRepo</text><rect fill="#FFFFFF" height="546.9473" style="stroke:#181818;stroke-width:1.0;" width="10" x="202" y="71.9121"/><rect fill="#FFFFFF" height="484.3652" style="stroke:#181818;stroke-width:1.0;" width="10" x="376" y="103.2031"/><rect fill="#FFFFFF" height="421.7832" style="stroke:#181818;stroke-width:1.0;" width="10" x="600" y="134.4941"/><rect fill="#FFFFFF" height="31.291" style="stroke:#181818;stroke-width:1.0;" width="10" x="739" y="197.0762"/><rect fill="#FFFFFF" height="31.291" style="stroke:#181818;stroke-width:1.0;" width="10" x="739" y="486.6953"/><rect fill="#FFFFFF" height="93.873" style="stroke:#181818;stroke-width:1.0;" width="10" x="914" y="165.7852"/><rect fill="#FFFFFF" height="31.291" style="stroke:#181818;stroke-width:1.0;" width="10" x="1010" y="348.5313"/><rect fill="#FFFFFF" height="93.873" style="stroke:#181818;stroke-width:1.0;" width="10" x="1165" y="317.2402"/><polygon fill="#181818" points="190,67.9121,200,71.9121,190,75.9121,194,71.9121" style="stroke:#181818;stroke-width:1.0;"/><line style="stroke:#181818;stroke-width:1.0;" x1="0" x2="196" y1="71.9121" y2="71.9121"/><text fill="#000000" font-family="sans-serif" font-size="13" lengthAdjust="spacing" textLength="183" x="7" y="66.6494">Get /buildings/:min&amp;:max (json)</text><polygon fill="#181818" points="364,99.2031,374,103.2031,364,107.2031,368,103.2031" style="stroke:#181818;stroke-width:1.0;"/><line style="stroke:#181818;stroke-width:1.0;" x1="212" x2="370" y1="103.2031" y2="103.2031"/><text fill="#000000" font-family="sans-serif" font-size="13" lengthAdjust="spacing" textLength="145" x="219" y="97.9404">listBuildingsInFloorLimit()</text><polygon fill="#181818" points="588,130.4941,598,134.4941,588,138.4941,592,134.4941" style="stroke:#181818;stroke-width:1.0;"/><line style="stroke:#181818;stroke-width:1.0;" x1="386" x2="594" y1="134.4941" y2="134.4941"/><text fill="#000000" font-family="sans-serif" font-size="13" lengthAdjust="spacing" textLength="195" x="393" y="129.2314">listBuildingsInFloorLimit(min,max)</text><polygon fill="#181818" points="902,161.7852,912,165.7852,902,169.7852,906,165.7852" style="stroke:#181818;stroke-width:1.0;"/><line style="stroke:#181818;stroke-width:1.0;" x1="610" x2="908" y1="165.7852" y2="165.7852"/><text fill="#000000" font-family="sans-serif" font-size="13" lengthAdjust="spacing" textLength="152" x="617" y="160.5225">findByDomainId(buildingId)</text><polygon fill="#181818" points="760,193.0762,750,197.0762,760,201.0762,756,197.0762" style="stroke:#181818;stroke-width:1.0;"/><line style="stroke:#181818;stroke-width:1.0;" x1="754" x2="913" y1="197.0762" y2="197.0762"/><text fill="#000000" font-family="sans-serif" font-size="13" lengthAdjust="spacing" textLength="146" x="766" y="191.8135">Map2Model(buildingData)</text><polygon fill="#181818" points="902,224.3672,912,228.3672,902,232.3672,906,228.3672" style="stroke:#181818;stroke-width:1.0;"/><line style="stroke:#181818;stroke-width:1.0;stroke-dasharray:2.0,2.0;" x1="744" x2="908" y1="228.3672" y2="228.3672"/><text fill="#000000" font-family="sans-serif" font-size="13" lengthAdjust="spacing" textLength="44" x="751" y="223.1045">building</text><polygon fill="#181818" points="621,255.6582,611,259.6582,621,263.6582,617,259.6582" style="stroke:#181818;stroke-width:1.0;"/><line style="stroke:#181818;stroke-width:1.0;stroke-dasharray:2.0,2.0;" x1="615" x2="918" y1="259.6582" y2="259.6582"/><text fill="#000000" font-family="sans-serif" font-size="13" lengthAdjust="spacing" textLength="44" x="627" y="254.3955">building</text><path d="M539.5,274.6582 L612.5,274.6582 L612.5,283.9492 L602.5,293.9492 L539.5,293.9492 L539.5,274.6582 " fill="#EEEEEE" style="stroke:#000000;stroke-width:1.5;"/><rect fill="none" height="251.3281" style="stroke:#000000;stroke-width:1.5;" width="681" x="539.5" y="274.6582"/><text fill="#000000" font-family="sans-serif" font-size="13" font-weight="bold" lengthAdjust="spacing" textLength="28" x="554.5" y="289.6865">loop</text><text fill="#000000" font-family="sans-serif" font-size="11" font-weight="bold" lengthAdjust="spacing" textLength="108" x="627.5" y="288.5283">[(for each building)]</text><polygon fill="#181818" points="1153,313.2402,1163,317.2402,1153,321.2402,1157,317.2402" style="stroke:#181818;stroke-width:1.0;"/><line style="stroke:#181818;stroke-width:1.0;" x1="610" x2="1159" y1="317.2402" y2="317.2402"/><text fill="#000000" font-family="sans-serif" font-size="13" lengthAdjust="spacing" textLength="178" x="617" y="311.9775">floorInLimit(buildingId,min,max)</text><polygon fill="#181818" points="1031,344.5313,1021,348.5313,1031,352.5313,1027,348.5313" style="stroke:#181818;stroke-width:1.0;"/><line style="stroke:#181818;stroke-width:1.0;" x1="1025" x2="1164" y1="348.5313" y2="348.5313"/><text fill="#000000" font-family="sans-serif" font-size="13" lengthAdjust="spacing" textLength="126" x="1037" y="343.2686">Map2Model(floorData)</text><polygon fill="#181818" points="1153,375.8223,1163,379.8223,1153,383.8223,1157,379.8223" style="stroke:#181818;stroke-width:1.0;"/><line style="stroke:#181818;stroke-width:1.0;stroke-dasharray:2.0,2.0;" x1="1015" x2="1159" y1="379.8223" y2="379.8223"/><text fill="#000000" font-family="sans-serif" font-size="13" lengthAdjust="spacing" textLength="24" x="1022" y="374.5596">floor</text><polygon fill="#181818" points="621,407.1133,611,411.1133,621,415.1133,617,411.1133" style="stroke:#181818;stroke-width:1.0;"/><line style="stroke:#181818;stroke-width:1.0;stroke-dasharray:2.0,2.0;" x1="615" x2="1169" y1="411.1133" y2="411.1133"/><text fill="#000000" font-family="sans-serif" font-size="13" lengthAdjust="spacing" textLength="45" x="627" y="405.8506">boolean</text><line style="stroke:#181818;stroke-width:1.0;" x1="610" x2="652" y1="442.4043" y2="442.4043"/><line style="stroke:#181818;stroke-width:1.0;" x1="652" x2="652" y1="442.4043" y2="455.4043"/><line style="stroke:#181818;stroke-width:1.0;" x1="611" x2="652" y1="455.4043" y2="455.4043"/><polygon fill="#181818" points="621,451.4043,611,455.4043,621,459.4043,617,455.4043" style="stroke:#181818;stroke-width:1.0;"/><text fill="#000000" font-family="sans-serif" font-size="13" lengthAdjust="spacing" textLength="33" x="617" y="437.1416">fillList</text><polygon fill="#181818" points="727,482.6953,737,486.6953,727,490.6953,731,486.6953" style="stroke:#181818;stroke-width:1.0;"/><line style="stroke:#181818;stroke-width:1.0;" x1="610" x2="733" y1="486.6953" y2="486.6953"/><text fill="#000000" font-family="sans-serif" font-size="13" lengthAdjust="spacing" textLength="110" x="617" y="481.4326">map2DTO(building)</text><polygon fill="#181818" points="621,513.9863,611,517.9863,621,521.9863,617,517.9863" style="stroke:#181818;stroke-width:1.0;"/><line style="stroke:#181818;stroke-width:1.0;stroke-dasharray:2.0,2.0;" x1="615" x2="743" y1="517.9863" y2="517.9863"/><text fill="#000000" font-family="sans-serif" font-size="13" lengthAdjust="spacing" textLength="70" x="627" y="512.7236">buildingDTO</text><polygon fill="#181818" points="397,552.2773,387,556.2773,397,560.2773,393,556.2773" style="stroke:#181818;stroke-width:1.0;"/><line style="stroke:#181818;stroke-width:1.0;stroke-dasharray:2.0,2.0;" x1="391" x2="604" y1="556.2773" y2="556.2773"/><text fill="#000000" font-family="sans-serif" font-size="13" lengthAdjust="spacing" textLength="17" x="403" y="551.0146">list</text><polygon fill="#181818" points="223,583.5684,213,587.5684,223,591.5684,219,587.5684" style="stroke:#181818;stroke-width:1.0;"/><line style="stroke:#181818;stroke-width:1.0;stroke-dasharray:2.0,2.0;" x1="217" x2="380" y1="587.5684" y2="587.5684"/><text fill="#000000" font-family="sans-serif" font-size="13" lengthAdjust="spacing" textLength="124" x="229" y="582.3057">response(list as json)</text><polygon fill="#181818" points="11,614.8594,1,618.8594,11,622.8594,7,618.8594" style="stroke:#181818;stroke-width:1.0;"/><line style="stroke:#181818;stroke-width:1.0;stroke-dasharray:2.0,2.0;" x1="5" x2="206" y1="618.8594" y2="618.8594"/><text fill="#000000" font-family="sans-serif" font-size="13" lengthAdjust="spacing" textLength="53" x="17" y="613.5967">response</text><!--SRC=[XLJBRjim4BphA_RKoa0S0JaAHG-fqS90WW99Vu2LrX4Rla3IQVFtNL8IIJjquWl9vSpixgpepvFtfkyw8vZoHock1oqxzyoLOPR9wybBqQGZIAtqC5aj4RmzOd5ZsF3Cdl3Hlme4YuClxjp4HlsNgoSuCE6mQHgAUpvmGpdXziZ5I9SF-kWHW3cmOLV5VDFAMoq4se0RqgaAVaJxmWSCI3Tlgx1xPW94CcCk23sWqR4kMay0tuNMzeGV8synfS8CQRPVvpvx-84UkjzBBjVragjFlMJ_eFtZjDeqRF3yXP4tioymhq02sO0U17T-BTZjLSnonoNtxOOeIQFm3EYNZq5liUazCIhkYchRH7PINVqDmMKVz4AxFHou6czVTreohlPZktQw7yz4ehqX4ZQ1FblQ0pbySwz758cxOvwTiPVvXTYyXMsgOAN5sn5NJf6iRFuzD1bXe3re2nIV4dHJwpowHks7PQzc-tBpLtKdynUo5XTFsOv5DNiIzIyQahMASxAcBF6IEPcH7T9Q85CrHk51WX-u47VqHPq3rldIUhFxzRCzTVE3oRuP5odK2a8rngdHlyv9-ihpgT7B1vAVh4Ldj7BO1bfusFDBhV2_RBVdf1hiFm00]--></g></svg>