<?xml version="1.0" encoding="us-ascii" standalone="no"?><svg xmlns="http://www.w3.org/2000/svg" xmlns:xlink="http://www.w3.org/1999/xlink" contentStyleType="text/css" height="707px" preserveAspectRatio="none" style="width:1120px;height:707px;background:#FFFFFF;" version="1.1" viewBox="0 0 1120 707" width="1120px" zoomAndPan="magnify"><defs/><g><rect fill="#FFFFFF" height="580.2383" style="stroke:#181818;stroke-width:1.0;" width="10" x="181" y="71.9121"/><rect fill="#FFFFFF" height="517.6563" style="stroke:#181818;stroke-width:1.0;" width="10" x="339" y="103.2031"/><rect fill="#FFFFFF" height="455.0742" style="stroke:#181818;stroke-width:1.0;" width="10" x="483" y="134.4941"/><rect fill="#FFFFFF" height="31.291" style="stroke:#181818;stroke-width:1.0;" width="10" x="634" y="348.5313"/><rect fill="#FFFFFF" height="31.291" style="stroke:#181818;stroke-width:1.0;" width="10" x="634" y="519.9863"/><rect fill="#FFFFFF" height="127.1641" style="stroke:#181818;stroke-width:1.0;" width="10" x="789" y="290.9492"/><rect fill="#FFFFFF" height="31.291" style="stroke:#181818;stroke-width:1.0;" width="10" x="885" y="197.0762"/><rect fill="#FFFFFF" height="93.873" style="stroke:#181818;stroke-width:1.0;" width="10" x="1060" y="165.7852"/><rect fill="none" height="81.873" style="stroke:#000000;stroke-width:1.5;" width="252.5" x="592" y="305.9492"/><rect fill="none" height="81.873" style="stroke:#000000;stroke-width:1.5;" width="255" x="431" y="477.4043"/><line style="stroke:#181818;stroke-width:0.5;stroke-dasharray:5.0,5.0;" x1="185.5" x2="185.5" y1="38.6211" y2="670.1504"/><line style="stroke:#181818;stroke-width:0.5;stroke-dasharray:5.0,5.0;" x1="343.5" x2="343.5" y1="38.6211" y2="670.1504"/><line style="stroke:#181818;stroke-width:0.5;stroke-dasharray:5.0,5.0;" x1="488" x2="488" y1="38.6211" y2="670.1504"/><line style="stroke:#181818;stroke-width:0.5;stroke-dasharray:5.0,5.0;" x1="568" x2="568" y1="38.6211" y2="670.1504"/><line style="stroke:#181818;stroke-width:0.5;stroke-dasharray:5.0,5.0;" x1="639" x2="639" y1="38.6211" y2="670.1504"/><line style="stroke:#181818;stroke-width:0.5;stroke-dasharray:5.0,5.0;" x1="793.5" x2="793.5" y1="38.6211" y2="670.1504"/><line style="stroke:#181818;stroke-width:0.5;stroke-dasharray:5.0,5.0;" x1="889.5" x2="889.5" y1="38.6211" y2="670.1504"/><line style="stroke:#181818;stroke-width:0.5;stroke-dasharray:5.0,5.0;" x1="1065" x2="1065" y1="38.6211" y2="670.1504"/><rect fill="#E3E3E3" height="32.6211" rx="2.5" ry="2.5" style="stroke:#181818;stroke-width:0.5;" width="85" x="143.5" y="5"/><text fill="#000000" font-family="sans-serif" font-size="14" lengthAdjust="spacing" textLength="71" x="150.5" y="27.1074">FloorRoute</text><rect fill="#E3E3E3" height="32.6211" rx="2.5" ry="2.5" style="stroke:#181818;stroke-width:0.5;" width="85" x="143.5" y="669.1504"/><text fill="#000000" font-family="sans-serif" font-size="14" lengthAdjust="spacing" textLength="71" x="150.5" y="691.2578">FloorRoute</text><rect fill="#E3E3E3" height="32.6211" rx="2.5" ry="2.5" style="stroke:#181818;stroke-width:0.5;" width="109" x="289.5" y="5"/><text fill="#000000" font-family="sans-serif" font-size="14" lengthAdjust="spacing" textLength="95" x="296.5" y="27.1074">FloorController</text><rect fill="#E3E3E3" height="32.6211" rx="2.5" ry="2.5" style="stroke:#181818;stroke-width:0.5;" width="109" x="289.5" y="669.1504"/><text fill="#000000" font-family="sans-serif" font-size="14" lengthAdjust="spacing" textLength="95" x="296.5" y="691.2578">FloorController</text><rect fill="#E3E3E3" height="32.6211" rx="2.5" ry="2.5" style="stroke:#181818;stroke-width:0.5;" width="94" x="441" y="5"/><text fill="#000000" font-family="sans-serif" font-size="14" lengthAdjust="spacing" textLength="80" x="448" y="27.1074">FloorService</text><rect fill="#E3E3E3" height="32.6211" rx="2.5" ry="2.5" style="stroke:#181818;stroke-width:0.5;" width="94" x="441" y="669.1504"/><text fill="#000000" font-family="sans-serif" font-size="14" lengthAdjust="spacing" textLength="80" x="448" y="691.2578">FloorService</text><rect fill="#E3E3E3" height="32.6211" rx="2.5" ry="2.5" style="stroke:#181818;stroke-width:0.5;" width="47" x="545" y="5"/><text fill="#000000" font-family="sans-serif" font-size="14" lengthAdjust="spacing" textLength="33" x="552" y="27.1074">Floor</text><rect fill="#E3E3E3" height="32.6211" rx="2.5" ry="2.5" style="stroke:#181818;stroke-width:0.5;" width="47" x="545" y="669.1504"/><text fill="#000000" font-family="sans-serif" font-size="14" lengthAdjust="spacing" textLength="33" x="552" y="691.2578">Floor</text><rect fill="#E3E3E3" height="32.6211" rx="2.5" ry="2.5" style="stroke:#181818;stroke-width:0.5;" width="74" x="602" y="5"/><text fill="#000000" font-family="sans-serif" font-size="14" lengthAdjust="spacing" textLength="60" x="609" y="27.1074">FloorMap</text><rect fill="#E3E3E3" height="32.6211" rx="2.5" ry="2.5" style="stroke:#181818;stroke-width:0.5;" width="74" x="602" y="669.1504"/><text fill="#000000" font-family="sans-serif" font-size="14" lengthAdjust="spacing" textLength="60" x="609" y="691.2578">FloorMap</text><rect fill="#E3E3E3" height="32.6211" rx="2.5" ry="2.5" style="stroke:#181818;stroke-width:0.5;" width="81" x="753.5" y="5"/><text fill="#000000" font-family="sans-serif" font-size="14" lengthAdjust="spacing" textLength="67" x="760.5" y="27.1074">FloorRepo</text><rect fill="#E3E3E3" height="32.6211" rx="2.5" ry="2.5" style="stroke:#181818;stroke-width:0.5;" width="81" x="753.5" y="669.1504"/><text fill="#000000" font-family="sans-serif" font-size="14" lengthAdjust="spacing" textLength="67" x="760.5" y="691.2578">FloorRepo</text><rect fill="#E3E3E3" height="32.6211" rx="2.5" ry="2.5" style="stroke:#181818;stroke-width:0.5;" width="91" x="844.5" y="5"/><text fill="#000000" font-family="sans-serif" font-size="14" lengthAdjust="spacing" textLength="77" x="851.5" y="27.1074">BuildingMap</text><rect fill="#E3E3E3" height="32.6211" rx="2.5" ry="2.5" style="stroke:#181818;stroke-width:0.5;" width="91" x="844.5" y="669.1504"/><text fill="#000000" font-family="sans-serif" font-size="14" lengthAdjust="spacing" textLength="77" x="851.5" y="691.2578">BuildingMap</text><rect fill="#E3E3E3" height="32.6211" rx="2.5" ry="2.5" style="stroke:#181818;stroke-width:0.5;" width="98" x="1016" y="5"/><text fill="#000000" font-family="sans-serif" font-size="14" lengthAdjust="spacing" textLength="84" x="1023" y="27.1074">BuildingRepo</text><rect fill="#E3E3E3" height="32.6211" rx="2.5" ry="2.5" style="stroke:#181818;stroke-width:0.5;" width="98" x="1016" y="669.1504"/><text fill="#000000" font-family="sans-serif" font-size="14" lengthAdjust="spacing" textLength="84" x="1023" y="691.2578">BuildingRepo</text><rect fill="#FFFFFF" height="580.2383" style="stroke:#181818;stroke-width:1.0;" width="10" x="181" y="71.9121"/><rect fill="#FFFFFF" height="517.6563" style="stroke:#181818;stroke-width:1.0;" width="10" x="339" y="103.2031"/><rect fill="#FFFFFF" height="455.0742" style="stroke:#181818;stroke-width:1.0;" width="10" x="483" y="134.4941"/><rect fill="#FFFFFF" height="31.291" style="stroke:#181818;stroke-width:1.0;" width="10" x="634" y="348.5313"/><rect fill="#FFFFFF" height="31.291" style="stroke:#181818;stroke-width:1.0;" width="10" x="634" y="519.9863"/><rect fill="#FFFFFF" height="127.1641" style="stroke:#181818;stroke-width:1.0;" width="10" x="789" y="290.9492"/><rect fill="#FFFFFF" height="31.291" style="stroke:#181818;stroke-width:1.0;" width="10" x="885" y="197.0762"/><rect fill="#FFFFFF" height="93.873" style="stroke:#181818;stroke-width:1.0;" width="10" x="1060" y="165.7852"/><polygon fill="#181818" points="169,67.9121,179,71.9121,169,75.9121,173,71.9121" style="stroke:#181818;stroke-width:1.0;"/><line style="stroke:#181818;stroke-width:1.0;" x1="0" x2="175" y1="71.9121" y2="71.9121"/><text fill="#000000" font-family="sans-serif" font-size="13" lengthAdjust="spacing" textLength="162" x="7" y="66.6494">Get /floors/building/:id (json)</text><polygon fill="#181818" points="327,99.2031,337,103.2031,327,107.2031,331,103.2031" style="stroke:#181818;stroke-width:1.0;"/><line style="stroke:#181818;stroke-width:1.0;" x1="191" x2="333" y1="103.2031" y2="103.2031"/><text fill="#000000" font-family="sans-serif" font-size="13" lengthAdjust="spacing" textLength="115" x="198" y="97.9404">listFloors(buildingId)</text><polygon fill="#181818" points="471,130.4941,481,134.4941,471,138.4941,475,134.4941" style="stroke:#181818;stroke-width:1.0;"/><line style="stroke:#181818;stroke-width:1.0;" x1="349" x2="477" y1="134.4941" y2="134.4941"/><text fill="#000000" font-family="sans-serif" font-size="13" lengthAdjust="spacing" textLength="115" x="356" y="129.2314">listFloors(buildingId)</text><polygon fill="#181818" points="1048,161.7852,1058,165.7852,1048,169.7852,1052,165.7852" style="stroke:#181818;stroke-width:1.0;"/><line style="stroke:#181818;stroke-width:1.0;" x1="493" x2="1054" y1="165.7852" y2="165.7852"/><text fill="#000000" font-family="sans-serif" font-size="13" lengthAdjust="spacing" textLength="152" x="500" y="160.5225">findByDomainId(buildingId)</text><polygon fill="#181818" points="906,193.0762,896,197.0762,906,201.0762,902,197.0762" style="stroke:#181818;stroke-width:1.0;"/><line style="stroke:#181818;stroke-width:1.0;" x1="900" x2="1059" y1="197.0762" y2="197.0762"/><text fill="#000000" font-family="sans-serif" font-size="13" lengthAdjust="spacing" textLength="146" x="912" y="191.8135">Map2Model(buildingData)</text><polygon fill="#181818" points="1048,224.3672,1058,228.3672,1048,232.3672,1052,228.3672" style="stroke:#181818;stroke-width:1.0;"/><line style="stroke:#181818;stroke-width:1.0;stroke-dasharray:2.0,2.0;" x1="890" x2="1054" y1="228.3672" y2="228.3672"/><text fill="#000000" font-family="sans-serif" font-size="13" lengthAdjust="spacing" textLength="44" x="897" y="223.1045">building</text><polygon fill="#181818" points="504,255.6582,494,259.6582,504,263.6582,500,259.6582" style="stroke:#181818;stroke-width:1.0;"/><line style="stroke:#181818;stroke-width:1.0;stroke-dasharray:2.0,2.0;" x1="498" x2="1064" y1="259.6582" y2="259.6582"/><text fill="#000000" font-family="sans-serif" font-size="13" lengthAdjust="spacing" textLength="44" x="510" y="254.3955">building</text><polygon fill="#181818" points="777,286.9492,787,290.9492,777,294.9492,781,290.9492" style="stroke:#181818;stroke-width:1.0;"/><line style="stroke:#181818;stroke-width:1.0;" x1="493" x2="783" y1="290.9492" y2="290.9492"/><text fill="#000000" font-family="sans-serif" font-size="13" lengthAdjust="spacing" textLength="154" x="500" y="285.6865">findByBuildingId(buildingId)</text><path d="M592,305.9492 L665,305.9492 L665,315.2402 L655,325.2402 L592,325.2402 L592,305.9492 " fill="#EEEEEE" style="stroke:#000000;stroke-width:1.5;"/><rect fill="none" height="81.873" style="stroke:#000000;stroke-width:1.5;" width="252.5" x="592" y="305.9492"/><text fill="#000000" font-family="sans-serif" font-size="13" font-weight="bold" lengthAdjust="spacing" textLength="28" x="607" y="320.9775">loop</text><text fill="#000000" font-family="sans-serif" font-size="11" font-weight="bold" lengthAdjust="spacing" textLength="90" x="680" y="319.8193">[(for each floor)]</text><polygon fill="#181818" points="655,344.5313,645,348.5313,655,352.5313,651,348.5313" style="stroke:#181818;stroke-width:1.0;"/><line style="stroke:#181818;stroke-width:1.0;" x1="649" x2="788" y1="348.5313" y2="348.5313"/><text fill="#000000" font-family="sans-serif" font-size="13" lengthAdjust="spacing" textLength="126" x="661" y="343.2686">Map2Model(floorData)</text><polygon fill="#181818" points="777,375.8223,787,379.8223,777,383.8223,781,379.8223" style="stroke:#181818;stroke-width:1.0;"/><line style="stroke:#181818;stroke-width:1.0;stroke-dasharray:2.0,2.0;" x1="639" x2="783" y1="379.8223" y2="379.8223"/><text fill="#000000" font-family="sans-serif" font-size="13" lengthAdjust="spacing" textLength="24" x="646" y="374.5596">floor</text><polygon fill="#181818" points="504,414.1133,494,418.1133,504,422.1133,500,418.1133" style="stroke:#181818;stroke-width:1.0;"/><line style="stroke:#181818;stroke-width:1.0;stroke-dasharray:2.0,2.0;" x1="498" x2="793" y1="418.1133" y2="418.1133"/><text fill="#000000" font-family="sans-serif" font-size="13" lengthAdjust="spacing" textLength="24" x="510" y="412.8506">floor</text><line style="stroke:#181818;stroke-width:1.0;" x1="493" x2="535" y1="449.4043" y2="449.4043"/><line style="stroke:#181818;stroke-width:1.0;" x1="535" x2="535" y1="449.4043" y2="462.4043"/><line style="stroke:#181818;stroke-width:1.0;" x1="494" x2="535" y1="462.4043" y2="462.4043"/><polygon fill="#181818" points="504,458.4043,494,462.4043,504,466.4043,500,462.4043" style="stroke:#181818;stroke-width:1.0;"/><text fill="#000000" font-family="sans-serif" font-size="13" lengthAdjust="spacing" textLength="33" x="500" y="444.1416">fillList</text><path d="M431,477.4043 L504,477.4043 L504,486.6953 L494,496.6953 L431,496.6953 L431,477.4043 " fill="#EEEEEE" style="stroke:#000000;stroke-width:1.5;"/><rect fill="none" height="81.873" style="stroke:#000000;stroke-width:1.5;" width="255" x="431" y="477.4043"/><text fill="#000000" font-family="sans-serif" font-size="13" font-weight="bold" lengthAdjust="spacing" textLength="28" x="446" y="492.4326">loop</text><text fill="#000000" font-family="sans-serif" font-size="11" font-weight="bold" lengthAdjust="spacing" textLength="90" x="519" y="491.2744">[(for each floor)]</text><polygon fill="#181818" points="622,515.9863,632,519.9863,622,523.9863,626,519.9863" style="stroke:#181818;stroke-width:1.0;"/><line style="stroke:#181818;stroke-width:1.0;" x1="493" x2="628" y1="519.9863" y2="519.9863"/><text fill="#000000" font-family="sans-serif" font-size="13" lengthAdjust="spacing" textLength="90" x="500" y="514.7236">map2DTO(floor)</text><polygon fill="#181818" points="504,547.2773,494,551.2773,504,555.2773,500,551.2773" style="stroke:#181818;stroke-width:1.0;"/><line style="stroke:#181818;stroke-width:1.0;stroke-dasharray:2.0,2.0;" x1="498" x2="638" y1="551.2773" y2="551.2773"/><text fill="#000000" font-family="sans-serif" font-size="13" lengthAdjust="spacing" textLength="50" x="510" y="546.0146">floorDTO</text><polygon fill="#181818" points="360,585.5684,350,589.5684,360,593.5684,356,589.5684" style="stroke:#181818;stroke-width:1.0;"/><line style="stroke:#181818;stroke-width:1.0;stroke-dasharray:2.0,2.0;" x1="354" x2="487" y1="589.5684" y2="589.5684"/><text fill="#000000" font-family="sans-serif" font-size="13" lengthAdjust="spacing" textLength="17" x="366" y="584.3057">list</text><polygon fill="#181818" points="202,616.8594,192,620.8594,202,624.8594,198,620.8594" style="stroke:#181818;stroke-width:1.0;"/><line style="stroke:#181818;stroke-width:1.0;stroke-dasharray:2.0,2.0;" x1="196" x2="343" y1="620.8594" y2="620.8594"/><text fill="#000000" font-family="sans-serif" font-size="13" lengthAdjust="spacing" textLength="124" x="208" y="615.5967">response(list as json)</text><polygon fill="#181818" points="11,648.1504,1,652.1504,11,656.1504,7,652.1504" style="stroke:#181818;stroke-width:1.0;"/><line style="stroke:#181818;stroke-width:1.0;stroke-dasharray:2.0,2.0;" x1="5" x2="185" y1="652.1504" y2="652.1504"/><text fill="#000000" font-family="sans-serif" font-size="13" lengthAdjust="spacing" textLength="53" x="17" y="646.8877">response</text><!--SRC=[XLF1JiCm3BttAtoZEunA72l4OKmW92Oau0T2uz6mD8cIR8Y_9sdNr5sxhPSazdilzcjyKtjlog8maYc_R-HjfPl2xOGopBBcjlQDpD8H6grqLLlT87YxHv8nhDgnR_pmVnB1OkL9pjMCwr-Xlc7BfCCioqBSYqgOS2SyIQtjkzvx160ERDnD0OzQUQkbH1j1LJfDaHze3wB227FTTeg9IQuR9jGqjs4cfXjcp9pyEnhTrXdMKNQr5vA79aVyFZYBf589c2qVEWzAU4OFnJPUweglOxue1OVynscro5ZbnO45tphFe5iX20p-b225ystbBkz5NlWYe1ETk0dX6uvHwkZX1HsYr1iUWyTzrA0Dbh0LYg_-rgtzB_oysCYMcA61A3ksk8JW_Dr6SvH9SyqyEr4z-IynDmx1SbBn5qLpxBLcYgA6NMATcDERiafUNBQbZOH_OI3VXjSSj6je7yeYrJGOH8rfGMTT8Mua5yfEUAu9LBmjWjn9-p_B8yqFO27bQtXXLpeZrBwviDwjFzzoWhhIrhZ2mBtQNBfsPhRco7I4Xdcsw8nM3lD8YuFVZV4C_twvF2NDmVu1]--></g></svg>