<?xml version="1.0" encoding="us-ascii" standalone="no"?><svg xmlns="http://www.w3.org/2000/svg" xmlns:xlink="http://www.w3.org/1999/xlink" contentStyleType="text/css" height="722px" preserveAspectRatio="none" style="width:936px;height:722px;background:#FFFFFF;" version="1.1" viewBox="0 0 936 722" width="936px" zoomAndPan="magnify"><defs/><g><rect fill="#FFFFFF" height="594.5293" style="stroke:#181818;stroke-width:1.0;" width="10" x="116" y="71.9121"/><rect fill="#FFFFFF" height="531.9473" style="stroke:#181818;stroke-width:1.0;" width="10" x="307" y="103.2031"/><rect fill="#FFFFFF" height="469.3652" style="stroke:#181818;stroke-width:1.0;" width="10" x="508" y="134.4941"/><rect fill="#FFFFFF" height="31.291" style="stroke:#181818;stroke-width:1.0;" width="10" x="659" y="197.0762"/><rect fill="#FFFFFF" height="31.291" style="stroke:#181818;stroke-width:1.0;" width="10" x="659" y="384.8223"/><rect fill="#FFFFFF" height="31.291" style="stroke:#181818;stroke-width:1.0;" width="10" x="659" y="447.4043"/><rect fill="#FFFFFF" height="31.291" style="stroke:#181818;stroke-width:1.0;" width="10" x="659" y="541.2773"/><rect fill="#FFFFFF" height="93.873" style="stroke:#181818;stroke-width:1.0;" width="10" x="828" y="165.7852"/><rect fill="#FFFFFF" height="156.4551" style="stroke:#181818;stroke-width:1.0;" width="10" x="828" y="353.5313"/><rect fill="#FFFFFF" height="31.291" style="stroke:#181818;stroke-width:1.0;" width="10" x="902" y="290.9492"/><line style="stroke:#181818;stroke-width:0.5;stroke-dasharray:5.0,5.0;" x1="120.5" x2="120.5" y1="38.6211" y2="684.4414"/><line style="stroke:#181818;stroke-width:0.5;stroke-dasharray:5.0,5.0;" x1="311.5" x2="311.5" y1="38.6211" y2="684.4414"/><line style="stroke:#181818;stroke-width:0.5;stroke-dasharray:5.0,5.0;" x1="513" x2="513" y1="38.6211" y2="684.4414"/><line style="stroke:#181818;stroke-width:0.5;stroke-dasharray:5.0,5.0;" x1="593" x2="593" y1="38.6211" y2="684.4414"/><line style="stroke:#181818;stroke-width:0.5;stroke-dasharray:5.0,5.0;" x1="664" x2="664" y1="38.6211" y2="684.4414"/><line style="stroke:#181818;stroke-width:0.5;stroke-dasharray:5.0,5.0;" x1="832.5" x2="832.5" y1="38.6211" y2="684.4414"/><line style="stroke:#181818;stroke-width:0.5;stroke-dasharray:5.0,5.0;" x1="906.5" x2="906.5" y1="38.6211" y2="684.4414"/><rect fill="#E3E3E3" height="32.6211" rx="2.5" ry="2.5" style="stroke:#181818;stroke-width:0.5;" width="85" x="78.5" y="5"/><text fill="#000000" font-family="sans-serif" font-size="14" lengthAdjust="spacing" textLength="71" x="85.5" y="27.1074">FloorRoute</text><rect fill="#E3E3E3" height="32.6211" rx="2.5" ry="2.5" style="stroke:#181818;stroke-width:0.5;" width="85" x="78.5" y="683.4414"/><text fill="#000000" font-family="sans-serif" font-size="14" lengthAdjust="spacing" textLength="71" x="85.5" y="705.5488">FloorRoute</text><rect fill="#E3E3E3" height="32.6211" rx="2.5" ry="2.5" style="stroke:#181818;stroke-width:0.5;" width="109" x="257.5" y="5"/><text fill="#000000" font-family="sans-serif" font-size="14" lengthAdjust="spacing" textLength="95" x="264.5" y="27.1074">FloorController</text><rect fill="#E3E3E3" height="32.6211" rx="2.5" ry="2.5" style="stroke:#181818;stroke-width:0.5;" width="109" x="257.5" y="683.4414"/><text fill="#000000" font-family="sans-serif" font-size="14" lengthAdjust="spacing" textLength="95" x="264.5" y="705.5488">FloorController</text><rect fill="#E3E3E3" height="32.6211" rx="2.5" ry="2.5" style="stroke:#181818;stroke-width:0.5;" width="94" x="466" y="5"/><text fill="#000000" font-family="sans-serif" font-size="14" lengthAdjust="spacing" textLength="80" x="473" y="27.1074">FloorService</text><rect fill="#E3E3E3" height="32.6211" rx="2.5" ry="2.5" style="stroke:#181818;stroke-width:0.5;" width="94" x="466" y="683.4414"/><text fill="#000000" font-family="sans-serif" font-size="14" lengthAdjust="spacing" textLength="80" x="473" y="705.5488">FloorService</text><rect fill="#E3E3E3" height="32.6211" rx="2.5" ry="2.5" style="stroke:#181818;stroke-width:0.5;" width="47" x="570" y="5"/><text fill="#000000" font-family="sans-serif" font-size="14" lengthAdjust="spacing" textLength="33" x="577" y="27.1074">Floor</text><rect fill="#E3E3E3" height="32.6211" rx="2.5" ry="2.5" style="stroke:#181818;stroke-width:0.5;" width="47" x="570" y="683.4414"/><text fill="#000000" font-family="sans-serif" font-size="14" lengthAdjust="spacing" textLength="33" x="577" y="705.5488">Floor</text><rect fill="#E3E3E3" height="32.6211" rx="2.5" ry="2.5" style="stroke:#181818;stroke-width:0.5;" width="74" x="627" y="5"/><text fill="#000000" font-family="sans-serif" font-size="14" lengthAdjust="spacing" textLength="60" x="634" y="27.1074">FloorMap</text><rect fill="#E3E3E3" height="32.6211" rx="2.5" ry="2.5" style="stroke:#181818;stroke-width:0.5;" width="74" x="627" y="683.4414"/><text fill="#000000" font-family="sans-serif" font-size="14" lengthAdjust="spacing" textLength="60" x="634" y="705.5488">FloorMap</text><rect fill="#E3E3E3" height="32.6211" rx="2.5" ry="2.5" style="stroke:#181818;stroke-width:0.5;" width="81" x="792.5" y="5"/><text fill="#000000" font-family="sans-serif" font-size="14" lengthAdjust="spacing" textLength="67" x="799.5" y="27.1074">FloorRepo</text><rect fill="#E3E3E3" height="32.6211" rx="2.5" ry="2.5" style="stroke:#181818;stroke-width:0.5;" width="81" x="792.5" y="683.4414"/><text fill="#000000" font-family="sans-serif" font-size="14" lengthAdjust="spacing" textLength="67" x="799.5" y="705.5488">FloorRepo</text><rect fill="#E3E3E3" height="32.6211" rx="2.5" ry="2.5" style="stroke:#181818;stroke-width:0.5;" width="47" x="883.5" y="5"/><text fill="#000000" font-family="sans-serif" font-size="14" lengthAdjust="spacing" textLength="33" x="890.5" y="27.1074">Floor</text><rect fill="#E3E3E3" height="32.6211" rx="2.5" ry="2.5" style="stroke:#181818;stroke-width:0.5;" width="47" x="883.5" y="683.4414"/><text fill="#000000" font-family="sans-serif" font-size="14" lengthAdjust="spacing" textLength="33" x="890.5" y="705.5488">Floor</text><rect fill="#FFFFFF" height="594.5293" style="stroke:#181818;stroke-width:1.0;" width="10" x="116" y="71.9121"/><rect fill="#FFFFFF" height="531.9473" style="stroke:#181818;stroke-width:1.0;" width="10" x="307" y="103.2031"/><rect fill="#FFFFFF" height="469.3652" style="stroke:#181818;stroke-width:1.0;" width="10" x="508" y="134.4941"/><rect fill="#FFFFFF" height="31.291" style="stroke:#181818;stroke-width:1.0;" width="10" x="659" y="197.0762"/><rect fill="#FFFFFF" height="31.291" style="stroke:#181818;stroke-width:1.0;" width="10" x="659" y="384.8223"/><rect fill="#FFFFFF" height="31.291" style="stroke:#181818;stroke-width:1.0;" width="10" x="659" y="447.4043"/><rect fill="#FFFFFF" height="31.291" style="stroke:#181818;stroke-width:1.0;" width="10" x="659" y="541.2773"/><rect fill="#FFFFFF" height="93.873" style="stroke:#181818;stroke-width:1.0;" width="10" x="828" y="165.7852"/><rect fill="#FFFFFF" height="156.4551" style="stroke:#181818;stroke-width:1.0;" width="10" x="828" y="353.5313"/><rect fill="#FFFFFF" height="31.291" style="stroke:#181818;stroke-width:1.0;" width="10" x="902" y="290.9492"/><polygon fill="#181818" points="104,67.9121,114,71.9121,104,75.9121,108,71.9121" style="stroke:#181818;stroke-width:1.0;"/><line style="stroke:#181818;stroke-width:1.0;" x1="0" x2="110" y1="71.9121" y2="71.9121"/><text fill="#000000" font-family="sans-serif" font-size="13" lengthAdjust="spacing" textLength="97" x="7" y="66.6494">Put/Patch /floors</text><polygon fill="#181818" points="295,99.2031,305,103.2031,295,107.2031,299,103.2031" style="stroke:#181818;stroke-width:1.0;"/><line style="stroke:#181818;stroke-width:1.0;" x1="126" x2="301" y1="103.2031" y2="103.2031"/><text fill="#000000" font-family="sans-serif" font-size="13" lengthAdjust="spacing" textLength="100" x="133" y="97.9404">updateFloor(json)</text><polygon fill="#181818" points="496,130.4941,506,134.4941,496,138.4941,500,134.4941" style="stroke:#181818;stroke-width:1.0;"/><line style="stroke:#181818;stroke-width:1.0;" x1="317" x2="502" y1="134.4941" y2="134.4941"/><text fill="#000000" font-family="sans-serif" font-size="13" lengthAdjust="spacing" textLength="172" x="324" y="129.2314">updateFloor(json as floorDTO)</text><polygon fill="#181818" points="816,161.7852,826,165.7852,816,169.7852,820,165.7852" style="stroke:#181818;stroke-width:1.0;"/><line style="stroke:#181818;stroke-width:1.0;" x1="518" x2="822" y1="165.7852" y2="165.7852"/><text fill="#000000" font-family="sans-serif" font-size="13" lengthAdjust="spacing" textLength="162" x="525" y="160.5225">findByDomainId(floorDTO.id)</text><polygon fill="#181818" points="680,193.0762,670,197.0762,680,201.0762,676,197.0762" style="stroke:#181818;stroke-width:1.0;"/><line style="stroke:#181818;stroke-width:1.0;" x1="674" x2="827" y1="197.0762" y2="197.0762"/><text fill="#000000" font-family="sans-serif" font-size="13" lengthAdjust="spacing" textLength="137" x="686" y="191.8135">Map2Model(savedFloor)</text><polygon fill="#181818" points="816,224.3672,826,228.3672,816,232.3672,820,228.3672" style="stroke:#181818;stroke-width:1.0;"/><line style="stroke:#181818;stroke-width:1.0;stroke-dasharray:2.0,2.0;" x1="664" x2="822" y1="228.3672" y2="228.3672"/><text fill="#000000" font-family="sans-serif" font-size="13" lengthAdjust="spacing" textLength="62" x="671" y="223.1045">savedFloor</text><polygon fill="#181818" points="529,255.6582,519,259.6582,529,263.6582,525,259.6582" style="stroke:#181818;stroke-width:1.0;"/><line style="stroke:#181818;stroke-width:1.0;stroke-dasharray:2.0,2.0;" x1="523" x2="832" y1="259.6582" y2="259.6582"/><text fill="#000000" font-family="sans-serif" font-size="13" lengthAdjust="spacing" textLength="62" x="535" y="254.3955">savedFloor</text><polygon fill="#181818" points="890,286.9492,900,290.9492,890,294.9492,894,290.9492" style="stroke:#181818;stroke-width:1.0;"/><line style="stroke:#181818;stroke-width:1.0;" x1="518" x2="896" y1="290.9492" y2="290.9492"/><text fill="#000000" font-family="sans-serif" font-size="13" lengthAdjust="spacing" textLength="132" x="525" y="285.6865">setAttributes(floorDTO)</text><polygon fill="#181818" points="529,318.2402,519,322.2402,529,326.2402,525,322.2402" style="stroke:#181818;stroke-width:1.0;"/><line style="stroke:#181818;stroke-width:1.0;stroke-dasharray:2.0,2.0;" x1="523" x2="906" y1="322.2402" y2="322.2402"/><text fill="#000000" font-family="sans-serif" font-size="13" lengthAdjust="spacing" textLength="75" x="535" y="316.9775">updatedFloor</text><polygon fill="#181818" points="816,349.5313,826,353.5313,816,357.5313,820,353.5313" style="stroke:#181818;stroke-width:1.0;"/><line style="stroke:#181818;stroke-width:1.0;" x1="518" x2="822" y1="353.5313" y2="353.5313"/><text fill="#000000" font-family="sans-serif" font-size="13" lengthAdjust="spacing" textLength="109" x="525" y="348.2686">save(updatedFloor)</text><polygon fill="#181818" points="680,380.8223,670,384.8223,680,388.8223,676,384.8223" style="stroke:#181818;stroke-width:1.0;"/><line style="stroke:#181818;stroke-width:1.0;" x1="674" x2="827" y1="384.8223" y2="384.8223"/><text fill="#000000" font-family="sans-serif" font-size="13" lengthAdjust="spacing" textLength="140" x="686" y="379.5596">map2data(updatedFloor)</text><polygon fill="#181818" points="816,412.1133,826,416.1133,816,420.1133,820,416.1133" style="stroke:#181818;stroke-width:1.0;"/><line style="stroke:#181818;stroke-width:1.0;stroke-dasharray:2.0,2.0;" x1="664" x2="822" y1="416.1133" y2="416.1133"/><text fill="#000000" font-family="sans-serif" font-size="13" lengthAdjust="spacing" textLength="102" x="671" y="410.8506">updatedFloorData</text><polygon fill="#181818" points="680,443.4043,670,447.4043,680,451.4043,676,447.4043" style="stroke:#181818;stroke-width:1.0;"/><line style="stroke:#181818;stroke-width:1.0;" x1="674" x2="827" y1="447.4043" y2="447.4043"/><text fill="#000000" font-family="sans-serif" font-size="13" lengthAdjust="spacing" textLength="99" x="686" y="442.1416">map2Model(floor)</text><polygon fill="#181818" points="816,474.6953,826,478.6953,816,482.6953,820,478.6953" style="stroke:#181818;stroke-width:1.0;"/><line style="stroke:#181818;stroke-width:1.0;stroke-dasharray:2.0,2.0;" x1="664" x2="822" y1="478.6953" y2="478.6953"/><text fill="#000000" font-family="sans-serif" font-size="13" lengthAdjust="spacing" textLength="24" x="671" y="473.4326">floor</text><polygon fill="#181818" points="529,505.9863,519,509.9863,529,513.9863,525,509.9863" style="stroke:#181818;stroke-width:1.0;"/><line style="stroke:#181818;stroke-width:1.0;stroke-dasharray:2.0,2.0;" x1="523" x2="832" y1="509.9863" y2="509.9863"/><text fill="#000000" font-family="sans-serif" font-size="13" lengthAdjust="spacing" textLength="24" x="535" y="504.7236">floor</text><polygon fill="#181818" points="647,537.2773,657,541.2773,647,545.2773,651,541.2773" style="stroke:#181818;stroke-width:1.0;"/><line style="stroke:#181818;stroke-width:1.0;" x1="518" x2="653" y1="541.2773" y2="541.2773"/><text fill="#000000" font-family="sans-serif" font-size="13" lengthAdjust="spacing" textLength="90" x="525" y="536.0146">map2DTO(floor)</text><polygon fill="#181818" points="529,568.5684,519,572.5684,529,576.5684,525,572.5684" style="stroke:#181818;stroke-width:1.0;"/><line style="stroke:#181818;stroke-width:1.0;stroke-dasharray:2.0,2.0;" x1="523" x2="663" y1="572.5684" y2="572.5684"/><text fill="#000000" font-family="sans-serif" font-size="13" lengthAdjust="spacing" textLength="50" x="535" y="567.3057">floorDTO</text><polygon fill="#181818" points="328,599.8594,318,603.8594,328,607.8594,324,603.8594" style="stroke:#181818;stroke-width:1.0;"/><line style="stroke:#181818;stroke-width:1.0;stroke-dasharray:2.0,2.0;" x1="322" x2="512" y1="603.8594" y2="603.8594"/><text fill="#000000" font-family="sans-serif" font-size="13" lengthAdjust="spacing" textLength="50" x="334" y="598.5967">floorDTO</text><polygon fill="#181818" points="137,631.1504,127,635.1504,137,639.1504,133,635.1504" style="stroke:#181818;stroke-width:1.0;"/><line style="stroke:#181818;stroke-width:1.0;stroke-dasharray:2.0,2.0;" x1="131" x2="311" y1="635.1504" y2="635.1504"/><text fill="#000000" font-family="sans-serif" font-size="13" lengthAdjust="spacing" textLength="157" x="143" y="629.8877">response(floorDTO as json)</text><polygon fill="#181818" points="11,662.4414,1,666.4414,11,670.4414,7,666.4414" style="stroke:#181818;stroke-width:1.0;"/><line style="stroke:#181818;stroke-width:1.0;stroke-dasharray:2.0,2.0;" x1="5" x2="120" y1="666.4414" y2="666.4414"/><text fill="#000000" font-family="sans-serif" font-size="13" lengthAdjust="spacing" textLength="53" x="17" y="661.1787">response</text><!--SRC=[bLD1JiCm4Bpd5NiZFRIHE4O82QYGE20Gy05ZRng3OrksKzJVOpjjuYPfrURYjNTcTdSStzJEwR8ej23IjOrOKTKKzfTBJGnfLhLhHDPleL5IqTge1i6P5fEC9lINRF3JxGI2GUgIdAq9KtzSRg0YmcAMPVxSSSgrhmdFGYdpeLg70CI22T4KyAIaCqe8D054-zqK-Obcooa6cEt2AIOacMe8bzFSAz4XtH2jv-G_KAlOfr_dXQiGPDdolfkbXFVM5U_4qHgAcBCPeOvlYP-ucnQw5JnbcAo4LZEFYRhvZrLouO4zCx40_3TiWyf-yAb4tz_wwsqHYRtWmQnmk8-3L9YpX8fBzhXRHyjUM7wGM74sKecsX9CG17xdOmdUrjjNnL3abcoHnPP6tBtbuQmBOTatC91Ydk61bHHB1p-FJ-QBetWykWVd3F_szs3p4nPLlLwCZYjsLbzKSnWfJrbpLivwwTTRJoFdsEVCJ6bhhpDkzsJHxWAhAyjLbrzRTO5xQKF-ZgvevxYCvsPdIusUuqdIv04EJz-WrKfQxF-ey00FRtbI-Mwv71FdOFy0]--></g></svg>